<svg xmlns="http://www.w3.org/2000/svg" viewBox="0 0 512 512">
  <!-- the weird twitter time machine bird: the classic bird, but old -->
  <!-- ruffled feathers on the crown, swept back -->
  <path fill="#55acee" d="M322 78 Q 326 52 316 34 Q 338 44 344 62 Q 348 34 340 14 Q 366 30 370 58 Q 380 34 404 26 Q 396 52 398 66 Q 380 84 350 88 Z"/>
  <!-- the classic bird -->
  <path fill="#55acee" d="M459.37 151.716c.325 4.548.325 9.097.325 13.645 0 138.72-105.583 298.558-298.558 298.558-59.452 0-114.68-17.219-161.137-47.106 8.447.974 16.568 1.299 25.34 1.299 49.055 0 94.213-16.568 130.274-44.832-46.132-.975-84.792-31.188-98.112-72.772 6.498.974 12.995 1.624 19.818 1.624 9.421 0 18.843-1.3 27.614-3.573-48.081-9.747-84.143-51.98-84.143-102.985v-1.299c13.969 7.797 30.214 12.67 47.431 13.319-28.264-18.843-46.781-51.005-46.781-87.391 0-19.492 5.197-37.36 14.294-52.954 51.655 63.675 129.3 105.258 216.365 109.807-1.624-7.797-2.599-15.918-2.599-24.04 0-57.828 46.782-104.934 104.934-104.934 30.213 0 57.502 12.67 76.67 33.137 23.715-4.548 46.456-13.32 66.599-25.34-7.798 24.366-24.366 44.833-46.132 57.827 21.117-2.273 41.584-8.122 60.426-16.243-14.292 20.791-32.161 39.308-52.628 54.253z"/>
  <!-- bushy white eyebrow, windswept -->
  <path fill="#fff" d="M340 108 Q 362 88 392 90 Q 382 78 364 76 Q 396 66 422 84 Q 442 96 448 110 Q 428 104 412 108 Q 428 114 434 124 Q 408 116 384 110 Q 360 106 340 108 Z"/>
  <!-- closed eye + wrinkles fanning toward the beak -->
  <g fill="none" stroke="#fff" stroke-width="12" stroke-linecap="round">
    <path d="M348 132 Q 384 158 420 144"/>
    <path d="M358 162 Q 388 182 414 170"/>
    <path d="M368 190 Q 392 204 410 194"/>
  </g>
  <!-- the cane, with a white casing so it reads over the body -->
  <path fill="none" stroke="#fff" stroke-width="30" stroke-linecap="round" d="M414 268 Q 446 234 478 256 Q 494 270 490 300 L476 438"/>
  <path fill="none" stroke="#55acee" stroke-width="17" stroke-linecap="round" d="M414 268 Q 446 234 478 256 Q 494 270 490 300 L476 438"/>
  <path fill="none" stroke="#3d8dc4" stroke-width="19" stroke-linecap="round" d="M476 442 L475 452"/>
</svg>
